<svg width="80" height="17" viewBox="0 0 80 17" fill="none" xmlns="http://www.w3.org/2000/svg">
<rect width="80" height="17" rx="8.5" fill="#1CC700"/>
<path d="M6.91 12.5L10.03 5.5H11.63L14.76 12.5H13.06L10.5 6.32H11.14L8.57 12.5H6.91ZM8.47 11L8.9 9.77H12.5L12.94 11H8.47ZM18.5563 12.58C18.1029 12.58 17.7063 12.48 17.3663 12.28C17.0263 12.08 16.7596 11.7767 16.5663 11.37C16.3796 10.9567 16.2863 10.4367 16.2863 9.81C16.2863 9.17667 16.3763 8.65667 16.5563 8.25C16.7363 7.84333 16.9963 7.54 17.3363 7.34C17.6763 7.14 18.0829 7.04 18.5563 7.04C19.0629 7.04 19.5163 7.15667 19.9163 7.39C20.3229 7.61667 20.6429 7.93667 20.8763 8.35C21.1163 8.76333 21.2363 9.25 21.2363 9.81C21.2363 10.3767 21.1163 10.8667 20.8763 11.28C20.6429 11.6933 20.3229 12.0133 19.9163 12.24C19.5163 12.4667 19.0629 12.58 18.5563 12.58ZM15.3763 14.44V7.12H16.8663V8.22L16.8363 9.82L16.9363 11.41V14.44H15.3763ZM18.2863 11.3C18.5463 11.3 18.7763 11.24 18.9763 11.12C19.1829 11 19.3463 10.83 19.4663 10.61C19.5929 10.3833 19.6562 10.1167 19.6562 9.81C19.6562 9.49667 19.5929 9.23 19.4663 9.01C19.3463 8.79 19.1829 8.62 18.9763 8.5C18.7763 8.38 18.5463 8.32 18.2863 8.32C18.0263 8.32 17.7929 8.38 17.5863 8.5C17.3796 8.62 17.2163 8.79 17.0963 9.01C16.9763 9.23 16.9163 9.49667 16.9163 9.81C16.9163 10.1167 16.9763 10.3833 17.0963 10.61C17.2163 10.83 17.3796 11 17.5863 11.12C17.7929 11.24 18.0263 11.3 18.2863 11.3ZM22.2805 12.5V7.12H23.7705V8.64L23.5605 8.2C23.7205 7.82 23.9772 7.53333 24.3305 7.34C24.6839 7.14 25.1139 7.04 25.6205 7.04V8.48C25.5539 8.47333 25.4939 8.47 25.4405 8.47C25.3872 8.46333 25.3305 8.46 25.2705 8.46C24.8439 8.46 24.4972 8.58333 24.2305 8.83C23.9705 9.07 23.8405 9.44667 23.8405 9.96V12.5H22.2805ZM29.0691 12.58C28.4957 12.58 27.9857 12.46 27.5391 12.22C27.0991 11.98 26.7491 11.6533 26.4891 11.24C26.2357 10.82 26.1091 10.3433 26.1091 9.81C26.1091 9.27 26.2357 8.79333 26.4891 8.38C26.7491 7.96 27.0991 7.63333 27.5391 7.4C27.9857 7.16 28.4957 7.04 29.0691 7.04C29.6357 7.04 30.1424 7.16 30.5891 7.4C31.0357 7.63333 31.3857 7.95667 31.6391 8.37C31.8924 8.78333 32.0191 9.26333 32.0191 9.81C32.0191 10.3433 31.8924 10.82 31.6391 11.24C31.3857 11.6533 31.0357 11.98 30.5891 12.22C30.1424 12.46 29.6357 12.58 29.0691 12.58ZM29.0691 11.3C29.3291 11.3 29.5624 11.24 29.7691 11.12C29.9757 11 30.1391 10.83 30.2591 10.61C30.3791 10.3833 30.4391 10.1167 30.4391 9.81C30.4391 9.49667 30.3791 9.23 30.2591 9.01C30.1391 8.79 29.9757 8.62 29.7691 8.5C29.5624 8.38 29.3291 8.32 29.0691 8.32C28.8091 8.32 28.5757 8.38 28.3691 8.5C28.1624 8.62 27.9957 8.79 27.8691 9.01C27.7491 9.23 27.6891 9.49667 27.6891 9.81C27.6891 10.1167 27.7491 10.3833 27.8691 10.61C27.9957 10.83 28.1624 11 28.3691 11.12C28.5757 11.24 28.8091 11.3 29.0691 11.3ZM34.3753 12.5L32.1153 7.12H33.7253L35.6053 11.75H34.8053L36.7553 7.12H38.2553L35.9853 12.5H34.3753ZM42.0161 12.5V11.45L41.9161 11.22V9.34C41.9161 9.00667 41.8128 8.74667 41.6061 8.56C41.4061 8.37333 41.0961 8.28 40.6761 8.28C40.3894 8.28 40.1061 8.32667 39.8261 8.42C39.5528 8.50667 39.3194 8.62667 39.1261 8.78L38.5661 7.69C38.8594 7.48333 39.2128 7.32333 39.6261 7.21C40.0394 7.09667 40.4594 7.04 40.8861 7.04C41.7061 7.04 42.3428 7.23333 42.7961 7.62C43.2494 8.00667 43.4761 8.61 43.4761 9.43V12.5H42.0161ZM40.3761 12.58C39.9561 12.58 39.5961 12.51 39.2961 12.37C38.9961 12.2233 38.7661 12.0267 38.6061 11.78C38.4461 11.5333 38.3661 11.2567 38.3661 10.95C38.3661 10.63 38.4428 10.35 38.5961 10.11C38.7561 9.87 39.0061 9.68333 39.3461 9.55C39.6861 9.41 40.1294 9.34 40.6761 9.34H42.1061V10.25H40.8461C40.4794 10.25 40.2261 10.31 40.0861 10.43C39.9528 10.55 39.8861 10.7 39.8861 10.88C39.8861 11.08 39.9628 11.24 40.1161 11.36C40.2761 11.4733 40.4928 11.53 40.7661 11.53C41.0261 11.53 41.2594 11.47 41.4661 11.35C41.6728 11.2233 41.8228 11.04 41.9161 10.8L42.1561 11.52C42.0428 11.8667 41.8361 12.13 41.5361 12.31C41.2361 12.49 40.8494 12.58 40.3761 12.58ZM47.237 12.58C46.7304 12.58 46.2737 12.4667 45.867 12.24C45.4604 12.0067 45.137 11.6833 44.897 11.27C44.6637 10.8567 44.547 10.37 44.547 9.81C44.547 9.24333 44.6637 8.75333 44.897 8.34C45.137 7.92667 45.4604 7.60667 45.867 7.38C46.2737 7.15333 46.7304 7.04 47.237 7.04C47.6904 7.04 48.087 7.14 48.427 7.34C48.767 7.54 49.0304 7.84333 49.217 8.25C49.4037 8.65667 49.497 9.17667 49.497 9.81C49.497 10.4367 49.407 10.9567 49.227 11.37C49.047 11.7767 48.787 12.08 48.447 12.28C48.1137 12.48 47.7104 12.58 47.237 12.58ZM47.507 11.3C47.7604 11.3 47.9904 11.24 48.197 11.12C48.4037 11 48.567 10.83 48.687 10.61C48.8137 10.3833 48.877 10.1167 48.877 9.81C48.877 9.49667 48.8137 9.23 48.687 9.01C48.567 8.79 48.4037 8.62 48.197 8.5C47.9904 8.38 47.7604 8.32 47.507 8.32C47.247 8.32 47.0137 8.38 46.807 8.5C46.6004 8.62 46.4337 8.79 46.307 9.01C46.187 9.23 46.127 9.49667 46.127 9.81C46.127 10.1167 46.187 10.3833 46.307 10.61C46.4337 10.83 46.6004 11 46.807 11.12C47.0137 11.24 47.247 11.3 47.507 11.3ZM48.917 12.5V11.4L48.947 9.8L48.847 8.21V5.08H50.407V12.5H48.917ZM54.4109 12.58C53.8375 12.58 53.3275 12.46 52.8809 12.22C52.4409 11.98 52.0909 11.6533 51.8309 11.24C51.5775 10.82 51.4509 10.3433 51.4509 9.81C51.4509 9.27 51.5775 8.79333 51.8309 8.38C52.0909 7.96 52.4409 7.63333 52.8809 7.4C53.3275 7.16 53.8375 7.04 54.4109 7.04C54.9775 7.04 55.4842 7.16 55.9309 7.4C56.3775 7.63333 56.7275 7.95667 56.9809 8.37C57.2342 8.78333 57.3609 9.26333 57.3609 9.81C57.3609 10.3433 57.2342 10.82 56.9809 11.24C56.7275 11.6533 56.3775 11.98 55.9309 12.22C55.4842 12.46 54.9775 12.58 54.4109 12.58ZM54.4109 11.3C54.6709 11.3 54.9042 11.24 55.1109 11.12C55.3175 11 55.4809 10.83 55.6009 10.61C55.7209 10.3833 55.7809 10.1167 55.7809 9.81C55.7809 9.49667 55.7209 9.23 55.6009 9.01C55.4809 8.79 55.3175 8.62 55.1109 8.5C54.9042 8.38 54.6709 8.32 54.4109 8.32C54.1509 8.32 53.9175 8.38 53.7109 8.5C53.5042 8.62 53.3375 8.79 53.2109 9.01C53.0909 9.23 53.0309 9.49667 53.0309 9.81C53.0309 10.1167 53.0909 10.3833 53.2109 10.61C53.3375 10.83 53.5042 11 53.7109 11.12C53.9175 11.24 54.1509 11.3 54.4109 11.3Z" fill="#444444"/>
<path d="M66.9062 8.03125H65.9688V4.28125H66.4375C66.9348 4.28125 67.4117 4.47879 67.7633 4.83042C68.115 5.18206 68.3125 5.65897 68.3125 6.15625C68.3125 6.28057 68.3619 6.3998 68.4498 6.48771C68.5377 6.57561 68.6569 6.625 68.7812 6.625C68.9056 6.625 69.0248 6.57561 69.1127 6.48771C69.2006 6.3998 69.25 6.28057 69.25 6.15625C69.2492 5.41057 68.9527 4.69565 68.4254 4.16837C67.8981 3.64109 67.1832 3.34453 66.4375 3.34375H65.9688V2.40625C65.9688 2.28193 65.9194 2.1627 65.8315 2.07479C65.7435 1.98689 65.6243 1.9375 65.5 1.9375C65.3757 1.9375 65.2565 1.98689 65.1685 2.07479C65.0806 2.1627 65.0312 2.28193 65.0312 2.40625V3.34375H64.5625C63.8166 3.34375 63.1012 3.64007 62.5738 4.16751C62.0463 4.69496 61.75 5.41033 61.75 6.15625C61.75 6.90217 62.0463 7.61754 62.5738 8.14499C63.1012 8.67243 63.8166 8.96875 64.5625 8.96875H65.0312V12.7188H64.0938C63.5965 12.7188 63.1196 12.5212 62.7679 12.1696C62.4163 11.8179 62.2188 11.341 62.2188 10.8438C62.2188 10.7194 62.1694 10.6002 62.0815 10.5123C61.9935 10.4244 61.8743 10.375 61.75 10.375C61.6257 10.375 61.5065 10.4244 61.4185 10.5123C61.3306 10.6002 61.2812 10.7194 61.2812 10.8438C61.282 11.5894 61.5786 12.3044 62.1059 12.8316C62.6331 13.3589 63.3481 13.6555 64.0938 13.6562H65.0312V14.5938C65.0312 14.7181 65.0806 14.8373 65.1685 14.9252C65.2565 15.0131 65.3757 15.0625 65.5 15.0625C65.6243 15.0625 65.7435 15.0131 65.8315 14.9252C65.9194 14.8373 65.9688 14.7181 65.9688 14.5938V13.6562H66.9062C67.6522 13.6562 68.3675 13.3599 68.895 12.8325C69.4224 12.305 69.7188 11.5897 69.7188 10.8438C69.7188 10.0978 69.4224 9.38246 68.895 8.85501C68.3675 8.32757 67.6522 8.03125 66.9062 8.03125ZM64.5625 8.03125C64.0652 8.03125 63.5883 7.83371 63.2367 7.48208C62.885 7.13044 62.6875 6.65353 62.6875 6.15625C62.6875 5.65897 62.885 5.18206 63.2367 4.83042C63.5883 4.47879 64.0652 4.28125 64.5625 4.28125H65.0312V8.03125H64.5625ZM66.9062 12.7188H65.9688V8.96875H66.9062C67.4035 8.96875 67.8804 9.16629 68.2321 9.51793C68.5837 9.86956 68.7812 10.3465 68.7812 10.8438C68.7812 11.341 68.5837 11.8179 68.2321 12.1696C67.8804 12.5212 67.4035 12.7188 66.9062 12.7188Z" fill="#444444"/>
</svg>
