<svg width="80" height="17" viewBox="0 0 80 17" fill="none" xmlns="http://www.w3.org/2000/svg">
<rect width="80" height="17" rx="8.5" fill="#D9D9D9"/>
<path d="M5.91 12.5L9.03 5.5H10.63L13.76 12.5H12.06L9.5 6.32H10.14L7.57 12.5H5.91ZM7.47 11L7.9 9.77H11.5L11.94 11H7.47ZM17.5563 12.58C17.1029 12.58 16.7063 12.48 16.3663 12.28C16.0263 12.08 15.7596 11.7767 15.5663 11.37C15.3796 10.9567 15.2863 10.4367 15.2863 9.81C15.2863 9.17667 15.3763 8.65667 15.5563 8.25C15.7363 7.84333 15.9963 7.54 16.3363 7.34C16.6763 7.14 17.0829 7.04 17.5563 7.04C18.0629 7.04 18.5163 7.15667 18.9163 7.39C19.3229 7.61667 19.6429 7.93667 19.8763 8.35C20.1163 8.76333 20.2363 9.25 20.2363 9.81C20.2363 10.3767 20.1163 10.8667 19.8763 11.28C19.6429 11.6933 19.3229 12.0133 18.9163 12.24C18.5163 12.4667 18.0629 12.58 17.5563 12.58ZM14.3763 14.44V7.12H15.8663V8.22L15.8363 9.82L15.9363 11.41V14.44H14.3763ZM17.2863 11.3C17.5463 11.3 17.7763 11.24 17.9763 11.12C18.1829 11 18.3463 10.83 18.4663 10.61C18.5929 10.3833 18.6562 10.1167 18.6562 9.81C18.6562 9.49667 18.5929 9.23 18.4663 9.01C18.3463 8.79 18.1829 8.62 17.9763 8.5C17.7763 8.38 17.5463 8.32 17.2863 8.32C17.0263 8.32 16.7929 8.38 16.5863 8.5C16.3796 8.62 16.2163 8.79 16.0963 9.01C15.9763 9.23 15.9163 9.49667 15.9163 9.81C15.9163 10.1167 15.9763 10.3833 16.0963 10.61C16.2163 10.83 16.3796 11 16.5863 11.12C16.7929 11.24 17.0263 11.3 17.2863 11.3ZM21.2805 12.5V7.12H22.7705V8.64L22.5605 8.2C22.7205 7.82 22.9772 7.53333 23.3305 7.34C23.6839 7.14 24.1139 7.04 24.6205 7.04V8.48C24.5539 8.47333 24.4939 8.47 24.4405 8.47C24.3872 8.46333 24.3305 8.46 24.2705 8.46C23.8439 8.46 23.4972 8.58333 23.2305 8.83C22.9705 9.07 22.8405 9.44667 22.8405 9.96V12.5H21.2805ZM28.0691 12.58C27.4957 12.58 26.9857 12.46 26.5391 12.22C26.0991 11.98 25.7491 11.6533 25.4891 11.24C25.2357 10.82 25.1091 10.3433 25.1091 9.81C25.1091 9.27 25.2357 8.79333 25.4891 8.38C25.7491 7.96 26.0991 7.63333 26.5391 7.4C26.9857 7.16 27.4957 7.04 28.0691 7.04C28.6357 7.04 29.1424 7.16 29.5891 7.4C30.0357 7.63333 30.3857 7.95667 30.6391 8.37C30.8924 8.78333 31.0191 9.26333 31.0191 9.81C31.0191 10.3433 30.8924 10.82 30.6391 11.24C30.3857 11.6533 30.0357 11.98 29.5891 12.22C29.1424 12.46 28.6357 12.58 28.0691 12.58ZM28.0691 11.3C28.3291 11.3 28.5624 11.24 28.7691 11.12C28.9757 11 29.1391 10.83 29.2591 10.61C29.3791 10.3833 29.4391 10.1167 29.4391 9.81C29.4391 9.49667 29.3791 9.23 29.2591 9.01C29.1391 8.79 28.9757 8.62 28.7691 8.5C28.5624 8.38 28.3291 8.32 28.0691 8.32C27.8091 8.32 27.5757 8.38 27.3691 8.5C27.1624 8.62 26.9957 8.79 26.8691 9.01C26.7491 9.23 26.6891 9.49667 26.6891 9.81C26.6891 10.1167 26.7491 10.3833 26.8691 10.61C26.9957 10.83 27.1624 11 27.3691 11.12C27.5757 11.24 27.8091 11.3 28.0691 11.3ZM33.3753 12.5L31.1153 7.12H32.7253L34.6053 11.75H33.8053L35.7553 7.12H37.2553L34.9853 12.5H33.3753ZM41.0161 12.5V11.45L40.9161 11.22V9.34C40.9161 9.00667 40.8128 8.74667 40.6061 8.56C40.4061 8.37333 40.0961 8.28 39.6761 8.28C39.3894 8.28 39.1061 8.32667 38.8261 8.42C38.5528 8.50667 38.3194 8.62667 38.1261 8.78L37.5661 7.69C37.8594 7.48333 38.2128 7.32333 38.6261 7.21C39.0394 7.09667 39.4594 7.04 39.8861 7.04C40.7061 7.04 41.3428 7.23333 41.7961 7.62C42.2494 8.00667 42.4761 8.61 42.4761 9.43V12.5H41.0161ZM39.3761 12.58C38.9561 12.58 38.5961 12.51 38.2961 12.37C37.9961 12.2233 37.7661 12.0267 37.6061 11.78C37.4461 11.5333 37.3661 11.2567 37.3661 10.95C37.3661 10.63 37.4428 10.35 37.5961 10.11C37.7561 9.87 38.0061 9.68333 38.3461 9.55C38.6861 9.41 39.1294 9.34 39.6761 9.34H41.1061V10.25H39.8461C39.4794 10.25 39.2261 10.31 39.0861 10.43C38.9528 10.55 38.8861 10.7 38.8861 10.88C38.8861 11.08 38.9628 11.24 39.1161 11.36C39.2761 11.4733 39.4928 11.53 39.7661 11.53C40.0261 11.53 40.2594 11.47 40.4661 11.35C40.6728 11.2233 40.8228 11.04 40.9161 10.8L41.1561 11.52C41.0428 11.8667 40.8361 12.13 40.5361 12.31C40.2361 12.49 39.8494 12.58 39.3761 12.58ZM46.237 12.58C45.7304 12.58 45.2737 12.4667 44.867 12.24C44.4604 12.0067 44.137 11.6833 43.897 11.27C43.6637 10.8567 43.547 10.37 43.547 9.81C43.547 9.24333 43.6637 8.75333 43.897 8.34C44.137 7.92667 44.4604 7.60667 44.867 7.38C45.2737 7.15333 45.7304 7.04 46.237 7.04C46.6904 7.04 47.087 7.14 47.427 7.34C47.767 7.54 48.0304 7.84333 48.217 8.25C48.4037 8.65667 48.497 9.17667 48.497 9.81C48.497 10.4367 48.407 10.9567 48.227 11.37C48.047 11.7767 47.787 12.08 47.447 12.28C47.1137 12.48 46.7104 12.58 46.237 12.58ZM46.507 11.3C46.7604 11.3 46.9904 11.24 47.197 11.12C47.4037 11 47.567 10.83 47.687 10.61C47.8137 10.3833 47.877 10.1167 47.877 9.81C47.877 9.49667 47.8137 9.23 47.687 9.01C47.567 8.79 47.4037 8.62 47.197 8.5C46.9904 8.38 46.7604 8.32 46.507 8.32C46.247 8.32 46.0137 8.38 45.807 8.5C45.6004 8.62 45.4337 8.79 45.307 9.01C45.187 9.23 45.127 9.49667 45.127 9.81C45.127 10.1167 45.187 10.3833 45.307 10.61C45.4337 10.83 45.6004 11 45.807 11.12C46.0137 11.24 46.247 11.3 46.507 11.3ZM47.917 12.5V11.4L47.947 9.8L47.847 8.21V5.08H49.407V12.5H47.917ZM53.4109 12.58C52.8375 12.58 52.3275 12.46 51.8809 12.22C51.4409 11.98 51.0909 11.6533 50.8309 11.24C50.5775 10.82 50.4509 10.3433 50.4509 9.81C50.4509 9.27 50.5775 8.79333 50.8309 8.38C51.0909 7.96 51.4409 7.63333 51.8809 7.4C52.3275 7.16 52.8375 7.04 53.4109 7.04C53.9775 7.04 54.4842 7.16 54.9309 7.4C55.3775 7.63333 55.7275 7.95667 55.9809 8.37C56.2342 8.78333 56.3609 9.26333 56.3609 9.81C56.3609 10.3433 56.2342 10.82 55.9809 11.24C55.7275 11.6533 55.3775 11.98 54.9309 12.22C54.4842 12.46 53.9775 12.58 53.4109 12.58ZM53.4109 11.3C53.6709 11.3 53.9042 11.24 54.1109 11.12C54.3175 11 54.4809 10.83 54.6009 10.61C54.7209 10.3833 54.7809 10.1167 54.7809 9.81C54.7809 9.49667 54.7209 9.23 54.6009 9.01C54.4809 8.79 54.3175 8.62 54.1109 8.5C53.9042 8.38 53.6709 8.32 53.4109 8.32C53.1509 8.32 52.9175 8.38 52.7109 8.5C52.5042 8.62 52.3375 8.79 52.2109 9.01C52.0909 9.23 52.0309 9.49667 52.0309 9.81C52.0309 10.1167 52.0909 10.3833 52.2109 10.61C52.3375 10.83 52.5042 11 52.7109 11.12C52.9175 11.24 53.1509 11.3 53.4109 11.3Z" fill="#444444"/>
<path d="M67.7663 6.02207L62.5163 11.1783C62.4286 11.2646 62.3106 11.3129 62.1876 11.3129C62.0646 11.3129 61.9465 11.2646 61.8589 11.1783L59.6089 8.96875C59.565 8.92558 59.53 8.87419 59.506 8.81751C59.4819 8.76083 59.4693 8.69997 59.4688 8.63841C59.4682 8.57684 59.4799 8.51578 59.5029 8.4587C59.526 8.40163 59.5601 8.34966 59.6033 8.30576C59.6465 8.26186 59.6979 8.2269 59.7545 8.20286C59.8112 8.17882 59.8721 8.16618 59.9336 8.16567C59.9952 8.16515 60.0563 8.17676 60.1133 8.19985C60.1704 8.22293 60.2224 8.25703 60.2663 8.30019L62.1876 10.1869L67.1094 5.35293C67.1982 5.26575 67.3179 5.21739 67.4423 5.21849C67.5039 5.21903 67.5648 5.2317 67.6215 5.25577C67.6782 5.27985 67.7296 5.31485 67.7727 5.35879C67.8159 5.40272 67.85 5.45473 67.8731 5.51184C67.8961 5.56895 67.9077 5.63005 67.9072 5.69164C67.9066 5.75323 67.894 5.81411 67.8699 5.87081C67.8458 5.9275 67.8108 5.9789 67.7669 6.02207H67.7663ZM73.3971 5.35879C73.354 5.31482 73.3026 5.27978 73.2459 5.25569C73.1892 5.2316 73.1283 5.21892 73.0667 5.21837C73.0051 5.21783 72.944 5.22943 72.8869 5.25252C72.8298 5.27561 72.7778 5.30973 72.7339 5.35293L67.812 10.1869L66.7087 9.10293C66.6199 9.01583 66.5002 8.96754 66.3759 8.96869C66.2516 8.96985 66.1328 9.02035 66.0457 9.10908C65.9586 9.19781 65.9103 9.31751 65.9114 9.44185C65.9126 9.56618 65.9631 9.68497 66.0518 9.77207L67.4833 11.1783C67.5709 11.2646 67.689 11.3129 67.812 11.3129C67.935 11.3129 68.053 11.2646 68.1407 11.1783L73.3907 6.02207C73.4347 5.97896 73.4698 5.9276 73.4939 5.87092C73.5181 5.81424 73.5308 5.75337 73.5314 5.69176C73.532 5.63016 73.5205 5.56905 73.4974 5.51191C73.4744 5.45478 73.4403 5.40274 73.3971 5.35879Z" fill="#444444"/>
</svg>
