<svg width="80" height="17" viewBox="0 0 80 17" fill="none" xmlns="http://www.w3.org/2000/svg">
<rect width="80" height="17" rx="8.5" fill="#D9D9D9"/>
<path d="M6.32 8.32H9.69V9.58H6.32V8.32ZM6.44 11.2H10.25V12.5H4.83V5.5H10.12V6.8H6.44V11.2ZM18.319 7.04C18.7457 7.04 19.1223 7.12667 19.449 7.3C19.7823 7.46667 20.0423 7.72667 20.229 8.08C20.4223 8.42667 20.519 8.87333 20.519 9.42V12.5H18.959V9.66C18.959 9.22667 18.869 8.90667 18.689 8.7C18.509 8.49333 18.2557 8.39 17.929 8.39C17.7023 8.39 17.499 8.44333 17.319 8.55C17.139 8.65 16.999 8.80333 16.899 9.01C16.799 9.21667 16.749 9.48 16.749 9.8V12.5H15.189V9.66C15.189 9.22667 15.099 8.90667 14.919 8.7C14.7457 8.49333 14.4957 8.39 14.169 8.39C13.9423 8.39 13.739 8.44333 13.559 8.55C13.379 8.65 13.239 8.80333 13.139 9.01C13.039 9.21667 12.989 9.48 12.989 9.8V12.5H11.429V7.12H12.919V8.59L12.639 8.16C12.8257 7.79333 13.089 7.51667 13.429 7.33C13.7757 7.13667 14.169 7.04 14.609 7.04C15.1023 7.04 15.5323 7.16667 15.899 7.42C16.2723 7.66667 16.519 8.04667 16.639 8.56L16.089 8.41C16.269 7.99 16.5557 7.65667 16.949 7.41C17.349 7.16333 17.8057 7.04 18.319 7.04ZM28.0493 12.5V11.45L27.9493 11.22V9.34C27.9493 9.00667 27.846 8.74667 27.6393 8.56C27.4393 8.37333 27.1293 8.28 26.7093 8.28C26.4226 8.28 26.1393 8.32667 25.8593 8.42C25.586 8.50667 25.3526 8.62667 25.1593 8.78L24.5993 7.69C24.8926 7.48333 25.246 7.32333 25.6593 7.21C26.0726 7.09667 26.4926 7.04 26.9193 7.04C27.7393 7.04 28.376 7.23333 28.8293 7.62C29.2826 8.00667 29.5093 8.61 29.5093 9.43V12.5H28.0493ZM26.4093 12.58C25.9893 12.58 25.6293 12.51 25.3293 12.37C25.0293 12.2233 24.7993 12.0267 24.6393 11.78C24.4793 11.5333 24.3993 11.2567 24.3993 10.95C24.3993 10.63 24.476 10.35 24.6293 10.11C24.7893 9.87 25.0393 9.68333 25.3793 9.55C25.7193 9.41 26.1626 9.34 26.7093 9.34H28.1393V10.25H26.8793C26.5126 10.25 26.2593 10.31 26.1193 10.43C25.986 10.55 25.9193 10.7 25.9193 10.88C25.9193 11.08 25.996 11.24 26.1493 11.36C26.3093 11.4733 26.526 11.53 26.7993 11.53C27.0593 11.53 27.2926 11.47 27.4993 11.35C27.706 11.2233 27.856 11.04 27.9493 10.8L28.1893 11.52C28.076 11.8667 27.8693 12.13 27.5693 12.31C27.2693 12.49 26.8826 12.58 26.4093 12.58ZM34.1912 7.04C34.6178 7.04 34.9978 7.12667 35.3312 7.3C35.6712 7.46667 35.9378 7.72667 36.1312 8.08C36.3245 8.42667 36.4212 8.87333 36.4212 9.42V12.5H34.8612V9.66C34.8612 9.22667 34.7645 8.90667 34.5712 8.7C34.3845 8.49333 34.1178 8.39 33.7712 8.39C33.5245 8.39 33.3012 8.44333 33.1012 8.55C32.9078 8.65 32.7545 8.80667 32.6412 9.02C32.5345 9.23333 32.4812 9.50667 32.4812 9.84V12.5H30.9212V7.12H32.4112V8.61L32.1312 8.16C32.3245 7.8 32.6012 7.52333 32.9612 7.33C33.3212 7.13667 33.7312 7.04 34.1912 7.04ZM41.1352 12.5V11.45L41.0352 11.22V9.34C41.0352 9.00667 40.9319 8.74667 40.7252 8.56C40.5252 8.37333 40.2152 8.28 39.7952 8.28C39.5086 8.28 39.2252 8.32667 38.9452 8.42C38.6719 8.50667 38.4386 8.62667 38.2452 8.78L37.6852 7.69C37.9786 7.48333 38.3319 7.32333 38.7452 7.21C39.1586 7.09667 39.5786 7.04 40.0052 7.04C40.8252 7.04 41.4619 7.23333 41.9152 7.62C42.3686 8.00667 42.5952 8.61 42.5952 9.43V12.5H41.1352ZM39.4952 12.58C39.0752 12.58 38.7152 12.51 38.4152 12.37C38.1152 12.2233 37.8852 12.0267 37.7252 11.78C37.5652 11.5333 37.4852 11.2567 37.4852 10.95C37.4852 10.63 37.5619 10.35 37.7152 10.11C37.8752 9.87 38.1252 9.68333 38.4652 9.55C38.8052 9.41 39.2486 9.34 39.7952 9.34H41.2252V10.25H39.9652C39.5986 10.25 39.3452 10.31 39.2052 10.43C39.0719 10.55 39.0052 10.7 39.0052 10.88C39.0052 11.08 39.0819 11.24 39.2352 11.36C39.3952 11.4733 39.6119 11.53 39.8852 11.53C40.1452 11.53 40.3786 11.47 40.5852 11.35C40.7919 11.2233 40.9419 11.04 41.0352 10.8L41.2752 11.52C41.1619 11.8667 40.9552 12.13 40.6552 12.31C40.3552 12.49 39.9686 12.58 39.4952 12.58ZM39.2552 6.43L40.6052 4.99H42.2852L40.4752 6.43H39.2552ZM44.0071 12.5V5.08H45.5671V12.5H44.0071ZM47.0149 12.5V7.12H48.5749V12.5H47.0149ZM47.7949 6.37C47.5083 6.37 47.2749 6.28667 47.0949 6.12C46.9149 5.95333 46.8249 5.74667 46.8249 5.5C46.8249 5.25333 46.9149 5.04667 47.0949 4.88C47.2749 4.71333 47.5083 4.63 47.7949 4.63C48.0816 4.63 48.3149 4.71 48.4949 4.87C48.6749 5.02333 48.7649 5.22333 48.7649 5.47C48.7649 5.73 48.6749 5.94667 48.4949 6.12C48.3216 6.28667 48.0883 6.37 47.7949 6.37ZM51.8327 12.58C51.3727 12.58 50.9294 12.5267 50.5027 12.42C50.0827 12.3067 49.7494 12.1667 49.5027 12L50.0227 10.88C50.2694 11.0333 50.5594 11.16 50.8927 11.26C51.2327 11.3533 51.5661 11.4 51.8927 11.4C52.2527 11.4 52.5061 11.3567 52.6527 11.27C52.8061 11.1833 52.8827 11.0633 52.8827 10.91C52.8827 10.7833 52.8227 10.69 52.7027 10.63C52.5894 10.5633 52.4361 10.5133 52.2427 10.48C52.0494 10.4467 51.8361 10.4133 51.6027 10.38C51.3761 10.3467 51.1461 10.3033 50.9127 10.25C50.6794 10.19 50.4661 10.1033 50.2727 9.99C50.0794 9.87667 49.9227 9.72333 49.8027 9.53C49.6894 9.33667 49.6327 9.08667 49.6327 8.78C49.6327 8.44 49.7294 8.14 49.9227 7.88C50.1227 7.62 50.4094 7.41667 50.7827 7.27C51.1561 7.11667 51.6027 7.04 52.1227 7.04C52.4894 7.04 52.8627 7.08 53.2427 7.16C53.6227 7.24 53.9394 7.35667 54.1927 7.51L53.6727 8.62C53.4127 8.46667 53.1494 8.36333 52.8827 8.31C52.6227 8.25 52.3694 8.22 52.1227 8.22C51.7761 8.22 51.5227 8.26667 51.3627 8.36C51.2027 8.45333 51.1227 8.57333 51.1227 8.72C51.1227 8.85333 51.1794 8.95333 51.2927 9.02C51.4127 9.08667 51.5694 9.14 51.7627 9.18C51.9561 9.22 52.1661 9.25667 52.3927 9.29C52.6261 9.31667 52.8594 9.36 53.0927 9.42C53.3261 9.48 53.5361 9.56667 53.7227 9.68C53.9161 9.78667 54.0727 9.93667 54.1927 10.13C54.3127 10.3167 54.3727 10.5633 54.3727 10.87C54.3727 11.2033 54.2727 11.5 54.0727 11.76C53.8727 12.0133 53.5827 12.2133 53.2027 12.36C52.8294 12.5067 52.3727 12.58 51.8327 12.58ZM58.0052 12.58C57.3919 12.58 56.8519 12.46 56.3852 12.22C55.9252 11.98 55.5686 11.6533 55.3152 11.24C55.0619 10.82 54.9352 10.3433 54.9352 9.81C54.9352 9.27 55.0586 8.79333 55.3052 8.38C55.5586 7.96 55.9019 7.63333 56.3352 7.4C56.7686 7.16 57.2586 7.04 57.8052 7.04C58.3319 7.04 58.8052 7.15333 59.2252 7.38C59.6519 7.6 59.9886 7.92 60.2352 8.34C60.4819 8.75333 60.6052 9.25 60.6052 9.83C60.6052 9.89 60.6019 9.96 60.5952 10.04C60.5886 10.1133 60.5819 10.1833 60.5752 10.25H56.2052V9.34H59.7552L59.1552 9.61C59.1552 9.33 59.0986 9.08667 58.9852 8.88C58.8719 8.67333 58.7152 8.51333 58.5152 8.4C58.3152 8.28 58.0819 8.22 57.8152 8.22C57.5486 8.22 57.3119 8.28 57.1052 8.4C56.9052 8.51333 56.7486 8.67667 56.6352 8.89C56.5219 9.09667 56.4652 9.34333 56.4652 9.63V9.87C56.4652 10.1633 56.5286 10.4233 56.6552 10.65C56.7886 10.87 56.9719 11.04 57.2052 11.16C57.4452 11.2733 57.7252 11.33 58.0452 11.33C58.3319 11.33 58.5819 11.2867 58.7952 11.2C59.0152 11.1133 59.2152 10.9833 59.3952 10.81L60.2252 11.71C59.9786 11.99 59.6686 12.2067 59.2952 12.36C58.9219 12.5067 58.4919 12.58 58.0052 12.58Z" fill="#444444"/>
<path d="M74.4569 5.55041L66.9569 13.0504C66.9134 13.094 66.8617 13.1286 66.8048 13.1522C66.7479 13.1757 66.6869 13.1879 66.6253 13.1879C66.5637 13.1879 66.5027 13.1757 66.4458 13.1522C66.3889 13.1286 66.3372 13.094 66.2936 13.0504L63.0124 9.76916C62.9244 9.6812 62.875 9.56191 62.875 9.43752C62.875 9.31313 62.9244 9.19383 63.0124 9.10588C63.1003 9.01792 63.2196 8.96851 63.344 8.96851C63.4684 8.96851 63.5877 9.01792 63.6757 9.10588L66.6253 12.0561L73.7936 4.88713C73.8816 4.79917 74.0009 4.74976 74.1253 4.74976C74.2497 4.74976 74.3689 4.79917 74.4569 4.88713C74.5449 4.97508 74.5943 5.09438 74.5943 5.21877C74.5943 5.34316 74.5449 5.46245 74.4569 5.55041Z" fill="#444444"/>
</svg>
