<svg width="21" height="21" viewBox="0 0 21 21" fill="none" xmlns="http://www.w3.org/2000/svg">
<path d="M16.4062 9.1875C16.4062 9.36155 16.3371 9.52847 16.214 9.65154C16.091 9.77461 15.924 9.84375 15.75 9.84375H12.4688C12.2947 9.84375 12.1278 9.77461 12.0047 9.65154C11.8816 9.52847 11.8125 9.36155 11.8125 9.1875C11.8125 9.01345 11.8816 8.84653 12.0047 8.72346C12.1278 8.60039 12.2947 8.53125 12.4688 8.53125H15.75C15.924 8.53125 16.091 8.60039 16.214 8.72346C16.3371 8.84653 16.4062 9.01345 16.4062 9.1875ZM15.75 11.1562H12.4688C12.2947 11.1562 12.1278 11.2254 12.0047 11.3485C11.8816 11.4715 11.8125 11.6385 11.8125 11.8125C11.8125 11.9865 11.8816 12.1535 12.0047 12.2765C12.1278 12.3996 12.2947 12.4688 12.4688 12.4688H15.75C15.924 12.4688 16.091 12.3996 16.214 12.2765C16.3371 12.1535 16.4062 11.9865 16.4062 11.8125C16.4062 11.6385 16.3371 11.4715 16.214 11.3485C16.091 11.2254 15.924 11.1562 15.75 11.1562ZM19.0312 4.59375V16.4062C19.0312 16.7543 18.893 17.0882 18.6468 17.3343C18.4007 17.5805 18.0668 17.7188 17.7188 17.7188H3.28125C2.93315 17.7188 2.59931 17.5805 2.35317 17.3343C2.10703 17.0882 1.96875 16.7543 1.96875 16.4062V4.59375C1.96875 4.24565 2.10703 3.91181 2.35317 3.66567C2.59931 3.41953 2.93315 3.28125 3.28125 3.28125H17.7188C18.0668 3.28125 18.4007 3.41953 18.6468 3.66567C18.893 3.91181 19.0312 4.24565 19.0312 4.59375ZM17.7188 16.4062V4.59375H3.28125V16.4062H17.7188ZM11.1349 13.6172C11.1784 13.7858 11.1532 13.9648 11.0647 14.1148C10.9763 14.2648 10.8319 14.3735 10.6632 14.417C10.4946 14.4605 10.3156 14.4353 10.1657 14.3468C10.0157 14.2583 9.90695 14.1139 9.86344 13.9453C9.6477 13.1037 8.79211 12.4688 7.87418 12.4688C6.95625 12.4688 6.10148 13.1037 5.88492 13.9453C5.84141 14.1139 5.7327 14.2583 5.58271 14.3468C5.43271 14.4353 5.25373 14.4605 5.08512 14.417C4.91651 14.3735 4.77209 14.2648 4.68363 14.1148C4.59518 13.9648 4.56993 13.7858 4.61344 13.6172C4.82639 12.8246 5.32978 12.1411 6.02355 11.7026C5.65488 11.3361 5.40332 10.8684 5.30077 10.3588C5.19821 9.84914 5.24928 9.32054 5.4475 8.83997C5.64572 8.35941 5.98217 7.94852 6.41419 7.65939C6.8462 7.37026 7.35434 7.21591 7.87418 7.21591C8.39402 7.21591 8.90216 7.37026 9.33417 7.65939C9.76619 7.94852 10.1026 8.35941 10.3009 8.83997C10.4991 9.32054 10.5501 9.84914 10.4476 10.3588C10.345 10.8684 10.0935 11.3361 9.7248 11.7026C10.4193 12.1404 10.9232 12.8241 11.1357 13.6172H11.1349ZM7.875 11.1562C8.13459 11.1562 8.38835 11.0793 8.60419 10.9351C8.82003 10.7908 8.98825 10.5858 9.08759 10.346C9.18693 10.1062 9.21292 9.84229 9.16228 9.58769C9.11164 9.33309 8.98663 9.09923 8.80308 8.91567C8.61952 8.73212 8.38566 8.60711 8.13106 8.55647C7.87646 8.50583 7.61256 8.53182 7.37273 8.63116C7.1329 8.7305 6.92792 8.89872 6.7837 9.11456C6.63948 9.3304 6.5625 9.58416 6.5625 9.84375C6.5625 10.1918 6.70078 10.5257 6.94692 10.7718C7.19306 11.018 7.5269 11.1562 7.875 11.1562Z" fill="#D4D4D4"/>
</svg>
