<svg width="22" height="22" viewBox="0 0 22 22" fill="none" xmlns="http://www.w3.org/2000/svg">
<path d="M19.7364 18.7636L15.4335 14.4615C16.6806 12.9643 17.3025 11.0438 17.1698 9.09968C17.037 7.15555 16.1599 5.33744 14.7208 4.02355C13.2817 2.70967 11.3915 2.00117 9.44337 2.04544C7.49522 2.08972 5.63914 2.88336 4.26123 4.26126C2.88333 5.63917 2.08969 7.49525 2.04541 9.4434C2.00114 11.3916 2.70964 13.2818 4.02352 14.7209C5.33741 16.1599 7.15552 17.0371 9.09965 17.1698C11.0438 17.3025 12.9642 16.6806 14.4615 15.4335L18.7635 19.7364C18.8274 19.8003 18.9033 19.8509 18.9867 19.8855C19.0702 19.9201 19.1596 19.9379 19.25 19.9379C19.3403 19.9379 19.4297 19.9201 19.5132 19.8855C19.5966 19.8509 19.6725 19.8003 19.7364 19.7364C19.8002 19.6725 19.8509 19.5967 19.8855 19.5132C19.92 19.4298 19.9378 19.3403 19.9378 19.25C19.9378 19.1596 19.92 19.0702 19.8855 18.9867C19.8509 18.9033 19.8002 18.8275 19.7364 18.7636ZM3.43745 9.62498C3.43745 8.40121 3.80034 7.20492 4.48023 6.18739C5.16012 5.16986 6.12648 4.37679 7.2571 3.90848C8.38772 3.44016 9.63181 3.31763 10.8321 3.55637C12.0323 3.79512 13.1348 4.38442 14.0002 5.24976C14.8655 6.1151 15.4548 7.2176 15.6936 8.41786C15.9323 9.61812 15.8098 10.8622 15.3415 11.9928C14.8731 13.1235 14.0801 14.0898 13.0625 14.7697C12.045 15.4496 10.8487 15.8125 9.62495 15.8125C7.98448 15.8107 6.41173 15.1582 5.25174 13.9982C4.09175 12.8382 3.43927 11.2655 3.43745 9.62498Z" fill="#D4D4D4"/>
</svg>
