<svg width="46" height="46" viewBox="0 0 46 46" fill="none" xmlns="http://www.w3.org/2000/svg">
<g clip-path="url(#clip0_62_12)">
<path d="M37.5 23.6875C37.5 24.0605 37.3518 24.4181 37.0881 24.6819C36.8244 24.9456 36.4667 25.0938 36.0938 25.0938H24.8438C24.4708 25.0938 24.1131 24.9456 23.8494 24.6819C23.5857 24.4181 23.4375 24.0605 23.4375 23.6875C23.4375 23.3145 23.5857 22.9569 23.8494 22.6931C24.1131 22.4294 24.4708 22.2812 24.8438 22.2812H36.0938C36.4667 22.2812 36.8244 22.4294 37.0881 22.6931C37.3518 22.9569 37.5 23.3145 37.5 23.6875ZM36.0938 27.9062H24.8438C24.4708 27.9062 24.1131 28.0544 23.8494 28.3181C23.5857 28.5819 23.4375 28.9395 23.4375 29.3125C23.4375 29.6855 23.5857 30.0431 23.8494 30.3069C24.1131 30.5706 24.4708 30.7188 24.8438 30.7188H36.0938C36.4667 30.7188 36.8244 30.5706 37.0881 30.3069C37.3518 30.0431 37.5 29.6855 37.5 29.3125C37.5 28.9395 37.3518 28.5819 37.0881 28.3181C36.8244 28.0544 36.4667 27.9062 36.0938 27.9062ZM45.9375 9.625V36.3438C45.9375 37.8356 45.3449 39.2663 44.29 40.3212C43.2351 41.3761 41.8043 41.9688 40.3125 41.9688H20.625C19.1332 41.9688 17.7024 41.3761 16.6475 40.3212C15.5926 39.2663 15 37.8356 15 36.3438V9.625C15 8.87908 15.2963 8.16371 15.8238 7.63626C16.3512 7.10882 17.0666 6.8125 17.8125 6.8125H20.625V5.40625C20.625 5.03329 20.7732 4.6756 21.0369 4.41188C21.3006 4.14816 21.6583 4 22.0312 4C22.4042 4 22.7619 4.14816 23.0256 4.41188C23.2893 4.6756 23.4375 5.03329 23.4375 5.40625V6.8125H29.0625V5.40625C29.0625 5.03329 29.2107 4.6756 29.4744 4.41188C29.7381 4.14816 30.0958 4 30.4688 4C30.8417 4 31.1994 4.14816 31.4631 4.41188C31.7268 4.6756 31.875 5.03329 31.875 5.40625V6.8125H37.5V5.40625C37.5 5.03329 37.6482 4.6756 37.9119 4.41188C38.1756 4.14816 38.5333 4 38.9062 4C39.2792 4 39.6369 4.14816 39.9006 4.41188C40.1643 4.6756 40.3125 5.03329 40.3125 5.40625V6.8125H43.125C43.8709 6.8125 44.5863 7.10882 45.1137 7.63626C45.6412 8.16371 45.9375 8.87908 45.9375 9.625ZM43.125 9.625H40.3125V11.0312C40.3125 11.4042 40.1643 11.7619 39.9006 12.0256C39.6369 12.2893 39.2792 12.4375 38.9062 12.4375C38.5333 12.4375 38.1756 12.2893 37.9119 12.0256C37.6482 11.7619 37.5 11.4042 37.5 11.0312V9.625H31.875V11.0312C31.875 11.4042 31.7268 11.7619 31.4631 12.0256C31.1994 12.2893 30.8417 12.4375 30.4688 12.4375C30.0958 12.4375 29.7381 12.2893 29.4744 12.0256C29.2107 11.7619 29.0625 11.4042 29.0625 11.0312V9.625H23.4375V11.0312C23.4375 11.4042 23.2893 11.7619 23.0256 12.0256C22.7619 12.2893 22.4042 12.4375 22.0312 12.4375C21.6583 12.4375 21.3006 12.2893 21.0369 12.0256C20.7732 11.7619 20.625 11.4042 20.625 11.0312V9.625H17.8125V36.3438C17.8125 37.0897 18.1088 37.805 18.6363 38.3325C19.1637 38.8599 19.8791 39.1562 20.625 39.1562H40.3125C41.0584 39.1562 41.7738 38.8599 42.3012 38.3325C42.8287 37.805 43.125 37.0897 43.125 36.3438V9.625Z" fill="#D4D4D4"/>
</g>
<defs>
<clipPath id="clip0_62_12">
<rect width="45" height="45" fill="white" transform="translate(0.5 0.5)"/>
</clipPath>
</defs>
</svg>
