<svg width="250" height="9" viewBox="0 0 250 9" fill="none" xmlns="http://www.w3.org/2000/svg">
<line x1="0.75" y1="4.75" x2="109.25" y2="4.75" stroke="#D4D4D4" stroke-opacity="0.6" stroke-width="1.5" stroke-linecap="round"/>
<path d="M121.594 8.07C121.047 8.07 120.561 7.95333 120.134 7.72C119.707 7.48 119.371 7.15333 119.124 6.74C118.877 6.32667 118.754 5.85667 118.754 5.33C118.754 4.79667 118.877 4.32667 119.124 3.92C119.371 3.50667 119.707 3.18333 120.134 2.95C120.561 2.71667 121.047 2.6 121.594 2.6C122.147 2.6 122.637 2.71667 123.064 2.95C123.497 3.18333 123.834 3.50333 124.074 3.91C124.321 4.31667 124.444 4.79 124.444 5.33C124.444 5.85667 124.321 6.32667 124.074 6.74C123.834 7.15333 123.497 7.48 123.064 7.72C122.637 7.95333 122.147 8.07 121.594 8.07ZM121.594 7C121.901 7 122.174 6.93333 122.414 6.8C122.654 6.66667 122.841 6.47333 122.974 6.22C123.114 5.96667 123.184 5.67 123.184 5.33C123.184 4.98333 123.114 4.68667 122.974 4.44C122.841 4.18667 122.654 3.99333 122.414 3.86C122.174 3.72667 121.904 3.66 121.604 3.66C121.297 3.66 121.024 3.72667 120.784 3.86C120.551 3.99333 120.364 4.18667 120.224 4.44C120.084 4.68667 120.014 4.98333 120.014 5.33C120.014 5.67 120.084 5.96667 120.224 6.22C120.364 6.47333 120.551 6.66667 120.784 6.8C121.024 6.93333 121.294 7 121.594 7ZM127.899 8.07C127.446 8.07 127.046 7.98667 126.699 7.82C126.353 7.64667 126.083 7.38667 125.889 7.04C125.696 6.68667 125.599 6.24333 125.599 5.71V2.66H126.849V5.54C126.849 6.02 126.956 6.38 127.169 6.62C127.389 6.85333 127.699 6.97 128.099 6.97C128.393 6.97 128.646 6.91 128.859 6.79C129.079 6.67 129.249 6.49 129.369 6.25C129.496 6.01 129.559 5.71333 129.559 5.36V2.66H130.809V8H129.619V6.56L129.829 7C129.649 7.34667 129.386 7.61333 129.039 7.8C128.693 7.98 128.313 8.07 127.899 8.07Z" fill="#D4D4D4" fill-opacity="0.6"/>
<line x1="140.75" y1="4.75" x2="249.25" y2="4.75" stroke="#D4D4D4" stroke-opacity="0.6" stroke-width="1.5" stroke-linecap="round"/>
</svg>
