<svg width="46" height="46" viewBox="0 0 46 46" fill="none" xmlns="http://www.w3.org/2000/svg">
<path d="M23 4.71875C19.3843 4.71875 15.8498 5.79093 12.8435 7.7997C9.83715 9.80847 7.494 12.6636 6.11034 16.0041C4.72667 19.3445 4.36464 23.0203 5.07003 26.5665C5.77541 30.1127 7.51653 33.3701 10.0732 35.9268C12.6299 38.4835 15.8873 40.2246 19.4335 40.93C22.9797 41.6354 26.6555 41.2733 29.9959 39.8897C33.3364 38.506 36.1915 36.1629 38.2003 33.1565C40.2091 30.1502 41.2813 26.6157 41.2813 23C41.2761 18.1531 39.3484 13.5061 35.9212 10.0789C32.4939 6.65157 27.8469 4.72387 23 4.71875ZM23 38.4688C19.9406 38.4688 16.9499 37.5615 14.406 35.8618C11.8622 34.1621 9.87954 31.7462 8.70875 28.9196C7.53795 26.0931 7.23162 22.9828 7.82849 19.9822C8.42535 16.9816 9.89861 14.2253 12.062 12.0619C14.2253 9.8986 16.9816 8.42534 19.9822 7.82848C22.9828 7.23161 26.0931 7.53795 28.9196 8.70874C31.7462 9.87953 34.1621 11.8622 35.8618 14.406C37.5615 16.9498 38.4688 19.9406 38.4688 23C38.4641 27.1011 36.8329 31.033 33.9329 33.9329C31.033 36.8329 27.1011 38.4641 23 38.4688ZM31.4375 23C31.4375 23.373 31.2894 23.7306 31.0256 23.9944C30.7619 24.2581 30.4042 24.4062 30.0313 24.4062H24.4063V30.0312C24.4063 30.4042 24.2581 30.7619 23.9944 31.0256C23.7307 31.2893 23.373 31.4375 23 31.4375C22.627 31.4375 22.2694 31.2893 22.0056 31.0256C21.7419 30.7619 21.5938 30.4042 21.5938 30.0312V24.4062H15.9688C15.5958 24.4062 15.2381 24.2581 14.9744 23.9944C14.7107 23.7306 14.5625 23.373 14.5625 23C14.5625 22.627 14.7107 22.2694 14.9744 22.0056C15.2381 21.7419 15.5958 21.5938 15.9688 21.5938H21.5938V15.9688C21.5938 15.5958 21.7419 15.2381 22.0056 14.9744C22.2694 14.7107 22.627 14.5625 23 14.5625C23.373 14.5625 23.7307 14.7107 23.9944 14.9744C24.2581 15.2381 24.4063 15.5958 24.4063 15.9688V21.5938H30.0313C30.4042 21.5938 30.7619 21.7419 31.0256 22.0056C31.2894 22.2694 31.4375 22.627 31.4375 23Z" fill="#D4D4D4"/>
</svg>
