<svg width="46" height="46" viewBox="0 0 46 46" fill="none" xmlns="http://www.w3.org/2000/svg">
<path d="M20.1875 38.4688C20.1875 38.8417 20.0393 39.1994 19.7756 39.4631C19.5119 39.7268 19.1542 39.875 18.7812 39.875H8.9375C8.19158 39.875 7.47621 39.5787 6.94876 39.0512C6.42132 38.5238 6.125 37.8084 6.125 37.0625V8.9375C6.125 8.19158 6.42132 7.47621 6.94876 6.94876C7.47621 6.42132 8.19158 6.125 8.9375 6.125H18.7812C19.1542 6.125 19.5119 6.27316 19.7756 6.53688C20.0393 6.8006 20.1875 7.15829 20.1875 7.53125C20.1875 7.90421 20.0393 8.2619 19.7756 8.52562C19.5119 8.78934 19.1542 8.9375 18.7812 8.9375H8.9375V37.0625H18.7812C19.1542 37.0625 19.5119 37.2107 19.7756 37.4744C20.0393 37.7381 20.1875 38.0958 20.1875 38.4688ZM39.4637 22.0051L32.4324 14.9738C32.1686 14.71 31.8107 14.5617 31.4375 14.5617C31.0643 14.5617 30.7064 14.71 30.4426 14.9738C30.1787 15.2377 30.0305 15.5956 30.0305 15.9688C30.0305 16.3419 30.1787 16.6998 30.4426 16.9637L35.0744 21.5938H18.7812C18.4083 21.5938 18.0506 21.7419 17.7869 22.0056C17.5232 22.2694 17.375 22.627 17.375 23C17.375 23.373 17.5232 23.7306 17.7869 23.9944C18.0506 24.2581 18.4083 24.4062 18.7812 24.4062H35.0744L30.4426 29.0363C30.1787 29.3002 30.0305 29.6581 30.0305 30.0312C30.0305 30.4044 30.1787 30.7623 30.4426 31.0262C30.7064 31.29 31.0643 31.4383 31.4375 31.4383C31.8107 31.4383 32.1686 31.29 32.4324 31.0262L39.4637 23.9949C39.5944 23.8643 39.6981 23.7092 39.7689 23.5385C39.8397 23.3678 39.8761 23.1848 39.8761 23C39.8761 22.8152 39.8397 22.6322 39.7689 22.4615C39.6981 22.2908 39.5944 22.1357 39.4637 22.0051Z" fill="#D4D4D4"/>
</svg>
