<svg width="40" height="40" viewBox="0 0 40 40" fill="none" xmlns="http://www.w3.org/2000/svg">
<path d="M35.4582 33.125C33.138 29.0109 29.5625 26.0609 25.3898 24.6625C27.4538 23.4023 29.0574 21.482 29.9543 19.1966C30.8513 16.9111 30.9919 14.3869 30.3548 12.0115C29.7176 9.63612 28.3378 7.54094 26.4272 6.0477C24.5167 4.55447 22.181 3.74576 19.779 3.74576C17.3769 3.74576 15.0413 4.55447 13.1307 6.0477C11.2202 7.54094 9.84035 9.63612 9.20317 12.0115C8.56598 14.3869 8.70666 16.9111 9.6036 19.1966C10.5005 21.482 12.1041 23.4023 14.1681 24.6625C9.99545 26.0594 6.41994 29.0094 4.09974 33.125C4.01466 33.2673 3.95822 33.4256 3.93376 33.5907C3.9093 33.7557 3.91732 33.9241 3.95734 34.0859C3.99736 34.2477 4.06856 34.3996 4.16676 34.5327C4.26496 34.6658 4.38816 34.7774 4.52909 34.8609C4.67001 34.9444 4.82582 34.9981 4.98731 35.0188C5.1488 35.0396 5.3127 35.0269 5.46935 34.9816C5.62599 34.9363 5.7722 34.8593 5.89936 34.7551C6.02652 34.651 6.13204 34.5217 6.2097 34.375C9.07986 29.2875 14.1529 26.25 19.779 26.25C25.405 26.25 30.4781 29.2875 33.3482 34.375C33.4259 34.5217 33.5314 34.651 33.6586 34.7551C33.7857 34.8593 33.9319 34.9363 34.0886 34.9816C34.2452 35.0269 34.4091 35.0396 34.5706 35.0188C34.7321 34.9981 34.8879 34.9444 35.0288 34.8609C35.1698 34.7774 35.293 34.6658 35.3912 34.5327C35.4894 34.3996 35.5606 34.2477 35.6006 34.0859C35.6406 33.9241 35.6486 33.7557 35.6242 33.5907C35.5997 33.4256 35.5433 33.2673 35.4582 33.125ZM11.2477 15C11.2477 13.2694 11.7481 11.5777 12.6855 10.1388C13.6229 8.69984 14.9553 7.57833 16.5142 6.91606C18.0731 6.2538 19.7884 6.08052 21.4433 6.41814C23.0982 6.75576 24.6183 7.58911 25.8115 8.81282C27.0046 10.0365 27.8171 11.5956 28.1463 13.293C28.4755 14.9903 28.3065 16.7496 27.6608 18.3485C27.0151 19.9473 25.9216 21.3139 24.5187 22.2754C23.1157 23.2368 21.4663 23.75 19.779 23.75C17.5171 23.7475 15.3485 22.8249 13.7491 21.1845C12.1497 19.544 11.2501 17.3199 11.2477 15Z" fill="#D4D4D4"/>
</svg>
